<svg width="65" height="30" viewBox="0 0 65 30" fill="none" xmlns="http://www.w3.org/2000/svg">
<g filter="url(#filter0_i_48_124)">
<rect y="9.15527e-05" width="65" height="29.25" rx="14.625" fill="url(#paint0_linear_48_124)"/>
</g>
<mask id="mask0_48_124" style="mask-type:alpha" maskUnits="userSpaceOnUse" x="0" y="0" width="65" height="30">
<rect y="9.15527e-05" width="65" height="29.25" rx="14.625" fill="url(#paint1_linear_48_124)"/>
</mask>
<g mask="url(#mask0_48_124)">
<circle cx="58" cy="39.0001" r="21" fill="url(#paint2_linear_48_124)"/>
<path d="M-1.30002 17.7126V22.5876L1.46248 35.4251C6.39165 37.2126 16.6075 40.8851 18.0375 41.2751C19.825 41.7626 35.5875 44.3626 36.4 44.6876C37.05 44.9476 59.3125 36.7793 70.3625 32.6626L66.7875 19.0126L52.4875 16.7376L38.1875 15.4376L32.825 16.0876L24.5375 13.3251L-1.30002 17.7126Z" fill="url(#paint3_linear_48_124)"/>
<path d="M13.4875 21.4501L7.47501 30.3876L37.7 31.2001L30.7125 23.8876H29.9L26.4875 18.6876H24.8625L20.475 12.3501L15.6 21.4501H13.4875Z" fill="url(#paint4_linear_48_124)"/>
<path d="M33.9625 20.8001L27.95 29.7376L58.175 30.5501L51.1875 23.2376H50.375L46.9625 18.0376H45.3375L40.95 11.7001L36.075 20.8001H33.9625Z" fill="url(#paint5_linear_48_124)"/>
<path d="M48.0598 22.9967L40.625 34.0915L78 35.1001L69.3595 26.0225H68.3548L64.1351 19.5673H62.1257L56.7003 11.7001L50.672 22.9967H48.0598Z" fill="url(#paint6_linear_48_124)"/>
<path d="M-1.66519 21.3717L-9.10001 32.4665L28.275 33.4751L19.6345 24.3975H18.6298L14.4101 17.9423H12.4007L6.97526 10.0751L0.947037 21.3717H-1.66519Z" fill="url(#paint7_linear_48_124)"/>
</g>
<path fill-rule="evenodd" clip-rule="evenodd" d="M40 20.8606H19C19.2521 18.925 20.9073 17.4303 22.9115 17.4303C23.0662 17.4303 23.2188 17.4392 23.3689 17.4565C24.3742 15.4093 26.4797 14.0001 28.9144 14.0001C31.6817 14.0001 34.0237 15.8205 34.8084 18.3291C35.2197 18.1911 35.6601 18.1163 36.1179 18.1163C37.9102 18.1163 39.4349 19.2618 40 20.8606Z" fill="url(#paint8_linear_48_124)"/>
<circle cx="50.375" cy="14.6251" r="11.375" fill="white"/>
<defs>
<filter id="filter0_i_48_124" x="0" y="9.15527e-05" width="65" height="35.25" filterUnits="userSpaceOnUse" color-interpolation-filters="sRGB">
<feFlood flood-opacity="0" result="BackgroundImageFix"/>
<feBlend mode="normal" in="SourceGraphic" in2="BackgroundImageFix" result="shape"/>
<feColorMatrix in="SourceAlpha" type="matrix" values="0 0 0 0 0 0 0 0 0 0 0 0 0 0 0 0 0 0 127 0" result="hardAlpha"/>
<feMorphology radius="3" operator="erode" in="SourceAlpha" result="effect1_innerShadow_48_124"/>
<feOffset dy="6"/>
<feGaussianBlur stdDeviation="4"/>
<feComposite in2="hardAlpha" operator="arithmetic" k2="-1" k3="1"/>
<feColorMatrix type="matrix" values="0 0 0 0 0 0 0 0 0 0 0 0 0 0 0 0 0 0 0.25 0"/>
<feBlend mode="normal" in2="shape" result="effect1_innerShadow_48_124"/>
</filter>
<linearGradient id="paint0_linear_48_124" x1="32.5" y1="9.15527e-05" x2="32.5" y2="29.2501" gradientUnits="userSpaceOnUse">
<stop stop-color="#ABFAFF"/>
<stop offset="1" stop-color="#D5FFAB"/>
</linearGradient>
<linearGradient id="paint1_linear_48_124" x1="32.5" y1="9.15527e-05" x2="32.5" y2="29.2501" gradientUnits="userSpaceOnUse">
<stop stop-color="#ABFAFF"/>
<stop offset="1" stop-color="#D5FFAB"/>
</linearGradient>
<linearGradient id="paint2_linear_48_124" x1="58" y1="13.5001" x2="58" y2="60.0001" gradientUnits="userSpaceOnUse">
<stop offset="0.370713" stop-color="#F6F061"/>
<stop offset="0.699362" stop-color="#61EDF6" stop-opacity="0"/>
</linearGradient>
<linearGradient id="paint3_linear_48_124" x1="34.5312" y1="13.3251" x2="34.5312" y2="44.6937" gradientUnits="userSpaceOnUse">
<stop stop-color="#9FDEF2"/>
<stop offset="0.553516" stop-color="#A8FFAC"/>
</linearGradient>
<linearGradient id="paint4_linear_48_124" x1="22.5875" y1="12.3501" x2="22.5875" y2="31.2001" gradientUnits="userSpaceOnUse">
<stop offset="0.290234" stop-color="#86D2A0"/>
<stop offset="1" stop-color="#517D91"/>
</linearGradient>
<linearGradient id="paint5_linear_48_124" x1="43.0625" y1="11.7001" x2="43.0625" y2="30.5501" gradientUnits="userSpaceOnUse">
<stop offset="0.290234" stop-color="#86D2A0"/>
<stop offset="1" stop-color="#517D91"/>
</linearGradient>
<linearGradient id="paint6_linear_48_124" x1="59.3125" y1="11.7001" x2="59.3125" y2="35.1001" gradientUnits="userSpaceOnUse">
<stop offset="0.290234" stop-color="#86D2A0"/>
<stop offset="1" stop-color="#517D91"/>
</linearGradient>
<linearGradient id="paint7_linear_48_124" x1="9.58749" y1="10.0751" x2="9.58749" y2="33.4751" gradientUnits="userSpaceOnUse">
<stop offset="0.290234" stop-color="#86D2A0"/>
<stop offset="1" stop-color="#517D91"/>
</linearGradient>
<linearGradient id="paint8_linear_48_124" x1="29.5" y1="14.0001" x2="29.5" y2="20.8606" gradientUnits="userSpaceOnUse">
<stop stop-color="#A8E0FF"/>
<stop offset="1" stop-color="#7FE0FF" stop-opacity="0"/>
</linearGradient>
</defs>
</svg>
